<mxfile host="65bd71144e" modified="2021-03-01T09:45:01.419Z" agent="5.0 (Windows NT 10.0; Win64; x64) AppleWebKit/537.36 (KHTML, like Gecko) Code/1.53.2 Chrome/87.0.4280.141 Electron/11.2.1 Safari/537.36" etag="MlmJTAusaDI5D9H-WRVj" version="14.2.4" type="embed">
    <diagram id="6hGFLwfOUW9BJ-s0fimq" name="Page-1">
        <mxGraphModel dx="1013" dy="767" grid="1" gridSize="10" guides="1" tooltips="1" connect="1" arrows="1" fold="1" page="1" pageScale="1" pageWidth="1654" pageHeight="1169" math="0" shadow="0">
            <root>
                <mxCell id="0"/>
                <mxCell id="1" parent="0"/>
                <mxCell id="47" value="ユーザー情報登録&lt;br style=&quot;font-size: 19px;&quot;&gt;Create" style="rounded=1;whiteSpace=wrap;html=1;fontSize=19;" parent="1" vertex="1">
                    <mxGeometry x="177.5" y="100" width="312.5" height="240" as="geometry"/>
                </mxCell>
                <mxCell id="48" value="確認画面&lt;br style=&quot;font-size: 19px;&quot;&gt;show_admin" style="rounded=1;whiteSpace=wrap;html=1;fontSize=19;" parent="1" vertex="1">
                    <mxGeometry x="590" y="110" width="180" height="230" as="geometry"/>
                </mxCell>
                <mxCell id="70" style="edgeStyle=orthogonalEdgeStyle;rounded=0;orthogonalLoop=1;jettySize=auto;html=1;fontSize=19;" parent="1" source="51" edge="1">
                    <mxGeometry relative="1" as="geometry">
                        <mxPoint x="460" y="595" as="targetPoint"/>
                    </mxGeometry>
                </mxCell>
                <mxCell id="51" value="show_edit&lt;br style=&quot;font-size: 19px&quot;&gt;登録されている&lt;br&gt;ユーザーを表示" style="rounded=1;whiteSpace=wrap;html=1;fontSize=19;" parent="1" vertex="1">
                    <mxGeometry x="170" y="460" width="220" height="270" as="geometry"/>
                </mxCell>
                <mxCell id="52" value="" style="endArrow=classic;html=1;fontSize=19;" parent="1" edge="1">
                    <mxGeometry width="50" height="50" relative="1" as="geometry">
                        <mxPoint x="492.5" y="220" as="sourcePoint"/>
                        <mxPoint x="580" y="220" as="targetPoint"/>
                    </mxGeometry>
                </mxCell>
                <mxCell id="58" value="DBへ保存&lt;br style=&quot;font-size: 19px;&quot;&gt;store" style="rounded=1;whiteSpace=wrap;html=1;fontSize=19;" parent="1" vertex="1">
                    <mxGeometry x="890" y="110" width="180" height="230" as="geometry"/>
                </mxCell>
                <mxCell id="59" value="" style="endArrow=classic;html=1;fontSize=19;" parent="1" edge="1">
                    <mxGeometry width="50" height="50" relative="1" as="geometry">
                        <mxPoint x="782.5" y="219.5" as="sourcePoint"/>
                        <mxPoint x="870" y="219.5" as="targetPoint"/>
                    </mxGeometry>
                </mxCell>
                <mxCell id="71" style="edgeStyle=orthogonalEdgeStyle;rounded=0;orthogonalLoop=1;jettySize=auto;html=1;fontSize=19;" parent="1" source="60" edge="1">
                    <mxGeometry relative="1" as="geometry">
                        <mxPoint x="780" y="595" as="targetPoint"/>
                    </mxGeometry>
                </mxCell>
                <mxCell id="60" value="show_detail&lt;br style=&quot;font-size: 19px;&quot;&gt;ユーザー（1人）の詳細情報を表示" style="rounded=1;whiteSpace=wrap;html=1;fontSize=19;" parent="1" vertex="1">
                    <mxGeometry x="470" y="460" width="250" height="270" as="geometry"/>
                </mxCell>
                <mxCell id="72" style="edgeStyle=orthogonalEdgeStyle;rounded=0;orthogonalLoop=1;jettySize=auto;html=1;fontSize=19;" parent="1" source="61" edge="1">
                    <mxGeometry relative="1" as="geometry">
                        <mxPoint x="1030" y="595" as="targetPoint"/>
                    </mxGeometry>
                </mxCell>
                <mxCell id="61" value="edit&lt;br style=&quot;font-size: 19px;&quot;&gt;編集画面" style="rounded=1;whiteSpace=wrap;html=1;fontSize=19;" parent="1" vertex="1">
                    <mxGeometry x="790" y="460" width="180" height="270" as="geometry"/>
                </mxCell>
                <mxCell id="73" style="edgeStyle=orthogonalEdgeStyle;rounded=0;orthogonalLoop=1;jettySize=auto;html=1;fontSize=19;" parent="1" source="63" edge="1">
                    <mxGeometry relative="1" as="geometry">
                        <mxPoint x="1250" y="595" as="targetPoint"/>
                    </mxGeometry>
                </mxCell>
                <mxCell id="63" value="edit_cofirm&lt;br style=&quot;font-size: 19px;&quot;&gt;確認画面" style="rounded=1;whiteSpace=wrap;html=1;fontSize=19;" parent="1" vertex="1">
                    <mxGeometry x="1040" y="460" width="160" height="270" as="geometry"/>
                </mxCell>
                <mxCell id="67" value="Update&lt;br style=&quot;font-size: 19px;&quot;&gt;更新" style="rounded=0;whiteSpace=wrap;html=1;fontSize=19;" parent="1" vertex="1">
                    <mxGeometry x="1260" y="570" width="120" height="60" as="geometry"/>
                </mxCell>
                <mxCell id="68" value="Destroy&lt;br style=&quot;font-size: 19px;&quot;&gt;ユーザー削除" style="rounded=0;whiteSpace=wrap;html=1;fontSize=19;" parent="1" vertex="1">
                    <mxGeometry x="530" y="800" width="120" height="60" as="geometry"/>
                </mxCell>
                <mxCell id="75" value="" style="endArrow=classic;html=1;fontSize=19;" parent="1" edge="1">
                    <mxGeometry width="50" height="50" relative="1" as="geometry">
                        <mxPoint x="590" y="730" as="sourcePoint"/>
                        <mxPoint x="590" y="780" as="targetPoint"/>
                    </mxGeometry>
                </mxCell>
                <mxCell id="76" value="【ユーザー情報の編集】" style="text;html=1;strokeColor=none;fillColor=none;align=center;verticalAlign=middle;whiteSpace=wrap;rounded=0;fontSize=19;" parent="1" vertex="1">
                    <mxGeometry x="160" y="520" width="240" height="20" as="geometry"/>
                </mxCell>
                <mxCell id="78" value="【ユーザー情報の登録】" style="text;html=1;strokeColor=none;fillColor=none;align=center;verticalAlign=middle;whiteSpace=wrap;rounded=0;fontSize=19;" parent="1" vertex="1">
                    <mxGeometry x="200" y="150" width="228.75" height="20" as="geometry"/>
                </mxCell>
                <mxCell id="79" value="" style="edgeStyle=orthogonalEdgeStyle;rounded=0;orthogonalLoop=1;jettySize=auto;html=1;fontSize=19;" parent="1" target="80" edge="1">
                    <mxGeometry relative="1" as="geometry">
                        <mxPoint x="385.0588235294117" y="1150" as="sourcePoint"/>
                    </mxGeometry>
                </mxCell>
                <mxCell id="80" value="" style="shape=ext;double=1;rounded=1;whiteSpace=wrap;html=1;align=left;fontSize=19;" parent="1" vertex="1">
                    <mxGeometry x="160" y="960" width="420" height="310" as="geometry"/>
                </mxCell>
                <mxCell id="81" value="対応する" style="text;html=1;align=center;verticalAlign=middle;resizable=0;points=[];autosize=1;fontSize=19;" parent="1" vertex="1">
                    <mxGeometry x="425" y="1210" width="90" height="30" as="geometry"/>
                </mxCell>
                <mxCell id="82" value="順番待ちユーザーリスト&lt;br&gt;wait_list" style="text;html=1;align=center;verticalAlign=middle;resizable=0;points=[];autosize=1;fontSize=19;" parent="1" vertex="1">
                    <mxGeometry x="260" y="995" width="220" height="50" as="geometry"/>
                </mxCell>
                <mxCell id="84" value="" style="shape=ext;double=1;rounded=1;whiteSpace=wrap;html=1;align=left;fontSize=19;" parent="1" vertex="1">
                    <mxGeometry x="700" y="1037.5" width="350" height="155" as="geometry"/>
                </mxCell>
                <mxCell id="85" value="本当に呼び出しますか？" style="text;html=1;align=center;verticalAlign=middle;resizable=0;points=[];autosize=1;fontSize=19;" parent="1" vertex="1">
                    <mxGeometry x="765" y="1100" width="220" height="30" as="geometry"/>
                </mxCell>
                <mxCell id="86" value="確認画面" style="text;html=1;align=center;verticalAlign=middle;resizable=0;points=[];autosize=1;fontSize=19;" parent="1" vertex="1">
                    <mxGeometry x="830" y="1052.5" width="90" height="30" as="geometry"/>
                </mxCell>
                <mxCell id="87" value="対応する" style="text;html=1;align=center;verticalAlign=middle;resizable=0;points=[];autosize=1;fontSize=19;" parent="1" vertex="1">
                    <mxGeometry x="920" y="1147.5" width="90" height="30" as="geometry"/>
                </mxCell>
                <mxCell id="88" value="&lt;span style=&quot;color: rgb(240 , 240 , 240) ; font-family: &amp;#34;helvetica&amp;#34; ; font-size: 19px ; font-style: normal ; font-weight: 400 ; letter-spacing: normal ; text-align: left ; text-indent: 0px ; text-transform: none ; word-spacing: 0px ; background-color: rgb(42 , 42 , 42) ; float: none ; display: inline&quot;&gt;氏名　マイナンバ　住所　チェックボックス&lt;br style=&quot;font-size: 19px&quot;&gt;&lt;/span&gt;" style="text;whiteSpace=wrap;html=1;fontSize=19;" parent="1" vertex="1">
                    <mxGeometry x="180" y="1070" width="430" height="200" as="geometry"/>
                </mxCell>
                <mxCell id="89" value="ショートメールで通知" style="text;html=1;align=center;verticalAlign=middle;resizable=0;points=[];autosize=1;fontSize=19;" parent="1" vertex="1">
                    <mxGeometry x="1150" y="1100" width="210" height="30" as="geometry"/>
                </mxCell>
            </root>
        </mxGraphModel>
    </diagram>
</mxfile>